<svg width="22" height="22" viewBox="0 0 22 22" fill="none" xmlns="http://www.w3.org/2000/svg">
<path d="M6.92864 2.21429H6.71436C6.83221 2.21429 6.92864 2.11786 6.92864 2.00001V2.21429H15.0715V2.00001C15.0715 2.11786 15.1679 2.21429 15.2858 2.21429H15.0715V4.14286H17.0001V2.00001C17.0001 1.05447 16.2313 0.285721 15.2858 0.285721H6.71436C5.76882 0.285721 5.00007 1.05447 5.00007 2.00001V4.14286H6.92864V2.21429ZM20.4286 4.14286H1.5715C1.09739 4.14286 0.714355 4.5259 0.714355 5.00001V5.85715C0.714355 5.97501 0.810784 6.07144 0.928641 6.07144H2.5465L3.20811 20.0804C3.25096 20.9938 4.00632 21.7143 4.91971 21.7143H17.0804C17.9965 21.7143 18.7492 20.9964 18.792 20.0804L19.4536 6.07144H21.0715C21.1894 6.07144 21.2858 5.97501 21.2858 5.85715V5.00001C21.2858 4.5259 20.9028 4.14286 20.4286 4.14286ZM16.8742 19.7857H5.12596L4.47775 6.07144H17.5224L16.8742 19.7857Z" fill="black"/>
</svg>
