<svg width="18" height="18" viewBox="0 0 18 18" fill="none" xmlns="http://www.w3.org/2000/svg">
<path d="M3.32352 14.3572C3.36816 14.3572 3.41281 14.3527 3.45745 14.346L7.21191 13.6875C7.25656 13.6786 7.29897 13.6585 7.33022 13.625L16.7923 4.16296C16.813 4.14231 16.8294 4.11778 16.8406 4.09078C16.8518 4.06377 16.8575 4.03483 16.8575 4.00559C16.8575 3.97636 16.8518 3.94741 16.8406 3.92041C16.8294 3.89341 16.813 3.86888 16.7923 3.84823L13.0825 0.136174C13.04 0.0937631 12.9842 0.0714417 12.924 0.0714417C12.8637 0.0714417 12.8079 0.0937631 12.7655 0.136174L3.30343 9.59823C3.26995 9.63171 3.24986 9.67189 3.24093 9.71653L2.58245 13.471C2.56074 13.5906 2.56849 13.7136 2.60505 13.8295C2.64162 13.9455 2.70588 14.0507 2.79227 14.1362C2.93959 14.279 3.12486 14.3572 3.32352 14.3572ZM4.82799 10.4643L12.924 2.37055L14.5601 4.00671L6.46415 12.1005L4.47977 12.4509L4.82799 10.4643ZM17.2141 16.2322H0.785575C0.390485 16.2322 0.0712891 16.5514 0.0712891 16.9464V17.75C0.0712891 17.8482 0.151646 17.9286 0.249861 17.9286H17.7499C17.8481 17.9286 17.9284 17.8482 17.9284 17.75V16.9464C17.9284 16.5514 17.6092 16.2322 17.2141 16.2322Z" fill="black"/>
</svg>
