<svg width="19" height="18" viewBox="0 0 19 18" fill="none" xmlns="http://www.w3.org/2000/svg">
<path d="M18.1267 8.8555L10.455 0.736868L9.9408 0.192403C9.82364 0.0691656 9.66519 0 9.50004 0C9.33488 0 9.17644 0.0691656 9.05927 0.192403L0.873343 8.8555C0.753286 8.98212 0.658403 9.13293 0.594295 9.29901C0.530187 9.4651 0.498152 9.6431 0.500082 9.82251C0.508024 10.5625 1.08975 11.1532 1.78863 11.1532H2.63243V18H16.3676V11.1532H17.2293C17.5688 11.1532 17.8885 11.0123 18.1287 10.758C18.247 10.6331 18.3407 10.4847 18.4045 10.3212C18.4682 10.1578 18.5007 9.98253 18.5 9.80569C18.5 9.44832 18.367 9.10987 18.1267 8.8555ZM10.6119 16.4864H8.3882V12.198H10.6119V16.4864ZM14.9381 9.63962V16.4864H11.8826V11.6934C11.8826 11.2289 11.5272 10.8526 11.0884 10.8526H7.91169C7.47291 10.8526 7.11752 11.2289 7.11752 11.6934V16.4864H4.06194V9.63962H2.15593L9.50202 1.86784L9.96066 2.35345L16.8461 9.63962H14.9381Z" fill="black"/>
</svg>
