<svg width="12" height="14" viewBox="0 0 12 14" fill="none" xmlns="http://www.w3.org/2000/svg">
<path d="M11.4545 6.18182H10.2955V2.36363C10.2955 1.15852 9.31875 0.181816 8.11364 0.181816H3.88636C2.68125 0.181816 1.70455 1.15852 1.70455 2.36363V6.18182H0.545455C0.24375 6.18182 0 6.42557 0 6.72727V13.2727C0 13.5744 0.24375 13.8182 0.545455 13.8182H11.4545C11.7563 13.8182 12 13.5744 12 13.2727V6.72727C12 6.42557 11.7563 6.18182 11.4545 6.18182ZM2.93182 2.36363C2.93182 1.83693 3.35966 1.40909 3.88636 1.40909H8.11364C8.64034 1.40909 9.06818 1.83693 9.06818 2.36363V6.18182H2.93182V2.36363ZM10.7727 12.5909H1.22727V7.40909H10.7727V12.5909ZM5.52273 10.2216V11.125C5.52273 11.2 5.58409 11.2614 5.65909 11.2614H6.34091C6.41591 11.2614 6.47727 11.2 6.47727 11.125V10.2216C6.61798 10.1206 6.723 9.97751 6.77722 9.813C6.83145 9.64849 6.83207 9.47102 6.77901 9.30614C6.72595 9.14125 6.62194 8.99745 6.48195 8.89544C6.34196 8.79343 6.17321 8.73847 6 8.73847C5.82679 8.73847 5.65804 8.79343 5.51805 8.89544C5.37806 8.99745 5.27405 9.14125 5.22099 9.30614C5.16793 9.47102 5.16856 9.64849 5.22278 9.813C5.277 9.97751 5.38202 10.1206 5.52273 10.2216Z" fill="#1F2937"/>
</svg>
