<svg width="12" height="12" viewBox="0 0 12 12" fill="none" xmlns="http://www.w3.org/2000/svg">
<path d="M11.5292 9.79296C11.2282 9.11936 10.7914 8.50749 10.2431 7.99146C9.69641 7.47393 9.04886 7.06131 8.33615 6.77638C8.32977 6.77337 8.32339 6.77186 8.31701 6.76884C9.31115 6.09045 9.95742 4.98543 9.95742 3.73869C9.95742 1.67337 8.18616 0 6 0C3.81384 0 2.04258 1.67337 2.04258 3.73869C2.04258 4.98543 2.68885 6.09045 3.68299 6.77035C3.67661 6.77337 3.67023 6.77487 3.66385 6.77789C2.94896 7.06281 2.30747 7.47136 1.75694 7.99297C1.20914 8.5094 0.772382 9.12116 0.470781 9.79447C0.174489 10.4536 0.0146918 11.1604 3.99029e-05 11.8764C-0.000386007 11.8925 0.00260125 11.9085 0.00882574 11.9235C0.0150502 11.9384 0.024386 11.9521 0.0362829 11.9636C0.0481797 11.9751 0.0623971 11.9843 0.0780971 11.9905C0.0937971 11.9968 0.110662 12 0.127699 12H1.08514C1.15535 12 1.2112 11.9472 1.2128 11.8824C1.24471 10.7186 1.73939 9.62864 2.61385 8.80251C3.51863 7.94774 4.72022 7.47739 6 7.47739C7.27978 7.47739 8.48137 7.94774 9.38615 8.80251C10.2606 9.62864 10.7553 10.7186 10.7872 11.8824C10.7888 11.9487 10.8446 12 10.9149 12H11.8723C11.8893 12 11.9062 11.9968 11.9219 11.9905C11.9376 11.9843 11.9518 11.9751 11.9637 11.9636C11.9756 11.9521 11.9849 11.9384 11.9912 11.9235C11.9974 11.9085 12.0004 11.8925 12 11.8764C11.984 11.1558 11.826 10.4548 11.5292 9.79296ZM6 6.33166C5.26756 6.33166 4.5782 6.06181 4.05959 5.57186C3.54097 5.08191 3.25534 4.43065 3.25534 3.73869C3.25534 3.04673 3.54097 2.39548 4.05959 1.90553C4.5782 1.41558 5.26756 1.14573 6 1.14573C6.73244 1.14573 7.4218 1.41558 7.94041 1.90553C8.45903 2.39548 8.74466 3.04673 8.74466 3.73869C8.74466 4.43065 8.45903 5.08191 7.94041 5.57186C7.4218 6.06181 6.73244 6.33166 6 6.33166Z" fill="#1F2937"/>
</svg>
