<svg width="19" height="19" viewBox="0 0 19 19" fill="none" xmlns="http://www.w3.org/2000/svg">
<path d="M18.3415 6.45313L12.6741 5.62947L10.1406 0.493308C10.0714 0.352683 9.9576 0.238843 9.81697 0.169647C9.46429 -0.00446039 9.03572 0.140629 8.85938 0.493308L6.3259 5.62947L0.658489 6.45313C0.502239 6.47545 0.359382 6.54911 0.250007 6.66072C0.117779 6.79663 0.0449148 6.97947 0.0474261 7.16907C0.0499374 7.35867 0.127618 7.53952 0.2634 7.67188L4.36385 11.6696L3.3951 17.3147C3.37238 17.4461 3.38691 17.5811 3.43704 17.7046C3.48718 17.8281 3.5709 17.935 3.67873 18.0133C3.78656 18.0917 3.91417 18.1382 4.0471 18.1477C4.18003 18.1572 4.31296 18.1292 4.43081 18.067L9.50001 15.4018L14.5692 18.067C14.7076 18.1406 14.8683 18.1652 15.0223 18.1384C15.4107 18.0714 15.6719 17.7031 15.6049 17.3147L14.6362 11.6696L18.7366 7.67188C18.8482 7.5625 18.9219 7.41965 18.9442 7.2634C19.0045 6.87277 18.7322 6.51117 18.3415 6.45313ZM12.9107 11.1071L13.7165 15.8013L9.50001 13.5871L5.28349 15.8036L6.08929 11.1094L2.67858 7.78349L7.39286 7.09822L9.50001 2.82813L11.6072 7.09822L16.3214 7.78349L12.9107 11.1071Z" fill="black"/>
</svg>
